<svg xmlns="http://www.w3.org/2000/svg" viewBox="0 0 64 64">
  <rect width="64" height="64" rx="14" fill="#4CAF50"/>
  <path d="M18 20C18 18.9 18.9 18 20 18H30C32.5 18 34 19.5 34 22V44C34 42 32.5 40.5 30 40.5H20C18.9 40.5 18 41.4 18 42.5V20Z" fill="white"/>
  <path d="M46 20C46 18.9 45.1 18 44 18H34C31.5 18 30 19.5 30 22V44C30 42 31.5 40.5 34 40.5H44C45.1 40.5 46 41.4 46 42.5V20Z" fill="white"/>
  <path d="M44 12L45.5 16L50 17.5L45.5 19L44 23L42.5 19L38 17.5L42.5 16L44 12Z" fill="white"/>
</svg>
